Coordinates
version=1
nRows=13
nColumns=40
inDegrees=yes

Units are S.I. units (second, meters, Newtons, ...)
If the header above contains a line with 'inDegrees', this indicates whether rotational values are in degrees (yes) or radians (no).

endheader
time	pelvis_tilt	pelvis_list	pelvis_rotation	pelvis_tx	pelvis_ty	pelvis_tz	hip_flexion_r	hip_adduction_r	hip_rotation_r	knee_angle_r	knee_angle_r_beta	ankle_angle_r	subtalar_angle_r	mtp_angle_r	hip_flexion_l	hip_adduction_l	hip_rotation_l	knee_angle_l	knee_angle_l_beta	ankle_angle_l	subtalar_angle_l	mtp_angle_l	lumbar_extension	lumbar_bending	lumbar_rotation	arm_flex_r	arm_add_r	arm_rot_r	elbow_flex_r	pro_sup_r	wrist_flex_r	wrist_dev_r	arm_flex_l	arm_add_l	arm_rot_l	elbow_flex_l	pro_sup_l	wrist_flex_l	wrist_dev_l
      3.01000000	    -13.73508480	     -0.18978803	     -0.74510936	     -0.26545345	      0.88316233	     -0.93174468	     37.06158226	    -18.71452053	    -17.84150167	     49.19244672	      0.85857016	     12.49819092	      0.00000000	      0.00000000	     36.99483149	    -16.45023418	    -12.08995847	     50.64216546	      0.88387253	     15.33109239	      0.00000000	      0.00000000	    -12.29859013	     -0.99143840	     -7.17246559	    -21.84170959	    -44.34561634	     33.82376894	     96.31273441	     87.32753503	      0.00000000	      0.00000000	    -38.16173102	    -38.79686940	     20.18819793	     94.88319148	     87.27582117	      0.00000000	      0.00000000
      3.01500000	    -12.86040871	     -0.30928778	     -0.71274950	     -0.26001899	      0.89724219	     -0.93218562	     34.11040177	    -18.08479614	    -18.58472112	     45.62059955	      0.79622967	      9.60327614	      0.00000000	      0.00000000	     34.22600390	    -15.98633940	    -11.94719983	     47.45139339	      0.82818305	     12.57581260	      0.00000000	      0.00000000	    -12.25608222	     -0.83665557	     -7.30203084	    -22.67523780	    -44.39831386	     33.22884490	     96.68106330	     87.31645761	      0.00000000	      0.00000000	    -38.93764041	    -38.57799278	     19.50428347	     95.24322521	     87.25361766	      0.00000000	      0.00000000
      3.02000000	    -11.89802189	     -0.57156091	     -0.62704183	     -0.25484094	      0.91185931	     -0.93246442	     30.92986758	    -17.26531539	    -19.52478587	     41.76492984	      0.72893554	      6.47800439	      0.00000000	      0.00000000	     31.35934839	    -15.85049733	    -12.89224814	     43.86131847	      0.76552442	      9.65630742	      0.00000000	      0.00000000	    -12.36439610	     -0.53335383	     -7.40474714	    -23.48075045	    -44.38358673	     32.60041626	     96.97162656	     87.31955166	      0.00000000	      0.00000000	    -39.57843919	    -38.38153157	     18.87505342	     95.49741761	     87.26631187	      0.00000000	      0.00000000
      3.02500000	    -11.19681307	     -0.69093449	     -0.61952156	     -0.24974612	      0.92630735	     -0.93279629	     28.12148270	    -16.44579017	    -19.95144471	     37.81400862	      0.65997895	      2.84494775	      0.00000000	      0.00000000	     28.71801448	    -15.36371695	    -12.64219196	     40.37776691	      0.70472498	      6.09229525	      0.00000000	      0.00000000	    -12.19434472	     -0.37167775	     -7.47936953	    -24.25206636	    -44.40651357	     32.09978064	     97.24799895	     87.31534077	      0.00000000	      0.00000000	    -40.20801455	    -38.19481686	     18.34418570	     95.64237373	     87.22195957	      0.00000000	      0.00000000
      3.03000000	    -10.29839754	     -0.97653193	     -0.52065120	     -0.24444426	      0.94123059	     -0.93310954	     24.87865395	    -15.46499607	    -20.83784555	     33.46577537	      0.58408797	     -1.01715524	      0.00000000	      0.00000000	     25.80593899	    -15.10739529	    -13.01272305	     36.55398873	      0.63798746	      2.55350268	      0.00000000	      0.00000000	    -12.27479091	     -0.02930815	     -7.55230900	    -25.04883226	    -44.37091158	     31.56420804	     97.42199362	     87.33178058	      0.00000000	      0.00000000	    -40.69360440	    -38.00082422	     18.00932422	     95.71225467	     87.29240083	      0.00000000	      0.00000000
      3.03500000	     -9.54518651	     -1.09341911	     -0.50434764	     -0.23937290	      0.95612291	     -0.93338339	     21.87877871	    -14.55144992	    -21.25352571	     29.00520610	      0.50623635	     -5.53231316	      0.00000000	      0.00000000	     23.01091813	    -14.66450339	    -13.42985811	     32.55400232	      0.56817453	     -1.64300814	      0.00000000	      0.00000000	    -12.23076815	      0.13840557	     -7.58138817	    -25.71233980	    -44.29665240	     31.17914818	     97.48917919	     87.33463876	      0.00000000	      0.00000000	    -41.13829193	    -37.81510703	     17.70299878	     95.71345800	     87.30391848	      0.00000000	      0.00000000
      3.04000000	     -8.90197208	     -1.18852280	     -0.46394925	     -0.23446331	      0.97094477	     -0.93359500	     19.02024245	    -13.63376732	    -21.48088957	     24.45292895	      0.42678412	    -10.45455073	      0.00000000	      0.00000000	     20.32846477	    -14.19431080	    -13.62607572	     28.51894096	      0.49774942	     -6.14527656	      0.00000000	      0.00000000	    -12.10657645	      0.24806287	     -7.63690396	    -26.27992411	    -44.22944462	     30.87629456	     97.49563629	     87.34438668	      0.00000000	      0.00000000	    -41.66743197	    -37.67599850	     17.41963567	     95.63059743	     87.31099291	      0.00000000	      0.00000000
      3.04500000	     -8.36939271	     -1.08800610	     -0.50207324	     -0.22981950	      0.98567191	     -0.93381353	     16.42163543	    -12.92052657	    -21.40133299	     19.96210634	      0.34840448	    -15.78031775	      0.00000000	      0.00000000	     17.74665576	    -13.52512602	    -13.90692234	     24.37214131	      0.42537411	    -11.02715801	      0.00000000	      0.00000000	    -11.90433428	      0.14248536	     -7.65592480	    -26.72000983	    -44.07611701	     30.49289692	     97.47448269	     87.34735984	      0.00000000	      0.00000000	    -42.17469491	    -37.43493113	     16.83832329	     95.72224683	     87.29592594	      0.00000000	      0.00000000
      3.05000000	     -7.85251937	     -1.03004922	     -0.55197420	     -0.22502061	      1.00031228	     -0.93394241	     13.87036929	    -12.17344293	    -21.06509411	     15.43595291	      0.26940820	    -21.40680718	      0.00000000	      0.00000000	     15.26662097	    -12.92902361	    -14.14009359	     20.26240224	      0.35364563	    -16.28097880	      0.00000000	      0.00000000	    -11.68945637	      0.06815267	     -7.65118690	    -27.17897294	    -43.94333981	     30.20015570	     97.42808663	     87.35200700	      0.00000000	      0.00000000	    -42.76654540	    -37.20210951	     16.30456765	     95.77917784	     87.30229499	      0.00000000	      0.00000000
      3.05500000	     -7.56160588	     -0.86457854	     -0.57884389	     -0.22080840	      1.01473422	     -0.93409706	     11.93002410	    -11.79403091	    -21.26935739	     11.67569213	      0.20377927	    -26.78848351	      0.00000000	      0.00000000	     13.20264266	    -12.25181802	    -14.25498289	     16.29780065	      0.28445028	    -21.68012234	      0.00000000	      0.00000000	    -11.29217056	     -0.11858187	     -7.68137536	    -27.52856141	    -43.70669279	     29.87409456	     97.28606807	     87.34672496	      0.00000000	      0.00000000	    -43.31188474	    -36.96605804	     15.73750351	     95.81985942	     87.30163982	      0.00000000	      0.00000000
      3.06000000	     -7.21696193	     -0.77895041	     -0.45676047	     -0.21691525	      1.02930266	     -0.93418057	     10.00659317	    -11.34787480	    -21.10627065	      8.05901093	      0.14065628	    -31.70933751	      0.00000000	      0.00000000	     11.30105262	    -11.70610408	    -14.36867917	     12.57514973	      0.21947777	    -26.77854480	      0.00000000	      0.00000000	    -11.00685431	     -0.23736106	     -7.82990804	    -27.80369096	    -43.42977559	     29.58512847	     97.08199441	     87.33913081	      0.00000000	      0.00000000	    -43.78322958	    -36.81153087	     15.18148884	     95.92340769	     87.30900012	      0.00000000	      0.00000000
      3.06500000	     -7.39545780	     -0.61086196	     -0.46032469	     -0.21388615	      1.04337108	     -0.93437007	      9.24518799	    -11.16346271	    -21.21658179	      5.52318107	      0.09639769	    -36.36820871	      0.00000000	      0.00000000	     10.29534422	    -11.18647399	    -14.74026937	      9.42334751	      0.16446844	    -31.52495776	      0.00000000	      0.00000000	    -10.25155165	     -0.41744767	     -7.80321397	    -28.11158825	    -43.04705503	     29.27187317	     96.82950316	     87.29930443	      0.00000000	      0.00000000	    -44.06781755	    -36.56304316	     14.54708398	     96.03999605	     87.25604063	      0.00000000	      0.00000000
      3.07000000	     -7.08259164	     -0.48676927	     -0.36913598	     -0.21059216	      1.05796040	     -0.93454729	      7.83364237	    -10.89976315	    -20.93569699	      2.98616797	      0.05211846	    -38.28117868	      0.00000000	      0.00000000	      8.61985749	    -10.63053097	    -14.64232326	      5.97172805	      0.10422632	    -35.12714556	      0.00000000	      0.00000000	    -10.03198366	     -0.55872075	     -7.99993031	    -28.14937114	    -42.64246540	     28.86114863	     96.49766059	     87.30852523	      0.00000000	      0.00000000	    -44.38644334	    -36.46454773	     14.28497277	     96.02839247	     87.29697641	      0.00000000	      0.00000000
